<svg xmlns="http://www.w3.org/2000/svg" xmlns:xlink="http://www.w3.org/1999/xlink" width="35" height="40" viewBox="0 0 35 40">
  <metadata><?xpacket begin="﻿" id="W5M0MpCehiHzreSzNTczkc9d"?>
<x:xmpmeta xmlns:x="adobe:ns:meta/" x:xmptk="Adobe XMP Core 5.6-c138 79.159824, 2016/09/14-01:09:01        ">
   <rdf:RDF xmlns:rdf="http://www.w3.org/1999/02/22-rdf-syntax-ns#">
      <rdf:Description rdf:about=""/>
   </rdf:RDF>
</x:xmpmeta>
                                                                                                    
                                                                                                    
                                                                                                    
                                                                                                    
                                                                                                    
                                                                                                    
                                                                                                    
                                                                                                    
                                                                                                    
                                                                                                    
                                                                                                    
                                                                                                    
                                                                                                    
                                                                                                    
                                                                                                    
                                                                                                    
                                                                                                    
                                                                                                    
                                                                                                    
                                                                                                    
                           
<?xpacket end="w"?></metadata>
<defs>
    <style>
      .cls-1 {
        fill-rule: evenodd;
        filter: url(#filter);
      }
    </style>
    <filter id="filter" x="975" y="1977" width="35" height="40" filterUnits="userSpaceOnUse">
      <feFlood result="flood" flood-color="#00d797"/>
      <feComposite result="composite" operator="in" in2="SourceGraphic"/>
      <feBlend result="blend" in2="SourceGraphic"/>
    </filter>
  </defs>
  <path id="_-e-broadcast" data-name="-e-broadcast" class="cls-1" d="M990.822,2015.55V1997.2a2.954,2.954,0,1,1,2.853.22v18.13a1.447,1.447,0,0,1-1.439,1.45A1.426,1.426,0,0,1,990.822,2015.55Zm8.8-14.97a1.443,1.443,0,0,0,.74.22,1.419,1.419,0,0,0,1.23-.7,10.637,10.637,0,0,0-9.474-16.11,10.617,10.617,0,0,0-10.068,11.04,10.722,10.722,0,0,0,1.294,4.71,1.421,1.421,0,0,0,1.966.55,1.465,1.465,0,0,0,.551-1.98,8.015,8.015,0,0,1-.958-3.42,7.868,7.868,0,0,1,2.013-5.55,7.712,7.712,0,0,1,12.226,9.26A1.453,1.453,0,0,0,999.62,2000.58Zm4.22,5.57a1.465,1.465,0,0,0,2.04-.17,17.736,17.736,0,0,0,4.12-11.38,17.5,17.5,0,1,0-30.421,11.86,1.423,1.423,0,0,0,1.054.49,1.381,1.381,0,0,0,.959-0.39,1.477,1.477,0,0,0,.1-2.05,14.621,14.621,0,1,1,21.982-.41A1.44,1.44,0,0,0,1003.84,2006.15Z" transform="translate(-975 -1977)"/>
</svg>
