<svg xmlns="http://www.w3.org/2000/svg" xmlns:xlink="http://www.w3.org/1999/xlink" width="42" height="40" viewBox="0 0 42 40">
  <metadata><?xpacket begin="﻿" id="W5M0MpCehiHzreSzNTczkc9d"?>
<x:xmpmeta xmlns:x="adobe:ns:meta/" x:xmptk="Adobe XMP Core 5.6-c138 79.159824, 2016/09/14-01:09:01        ">
   <rdf:RDF xmlns:rdf="http://www.w3.org/1999/02/22-rdf-syntax-ns#">
      <rdf:Description rdf:about=""/>
   </rdf:RDF>
</x:xmpmeta>
                                                                                                    
                                                                                                    
                                                                                                    
                                                                                                    
                                                                                                    
                                                                                                    
                                                                                                    
                                                                                                    
                                                                                                    
                                                                                                    
                                                                                                    
                                                                                                    
                                                                                                    
                                                                                                    
                                                                                                    
                                                                                                    
                                                                                                    
                                                                                                    
                                                                                                    
                                                                                                    
                           
<?xpacket end="w"?></metadata>
<defs>
    <style>
      .cls-1 {
        fill-rule: evenodd;
        filter: url(#filter);
      }
    </style>
    <filter id="filter" x="975" y="1733" width="42" height="40" filterUnits="userSpaceOnUse">
      <feFlood result="flood" flood-color="#00d797"/>
      <feComposite result="composite" operator="in" in2="SourceGraphic"/>
      <feBlend result="blend" in2="SourceGraphic"/>
    </filter>
  </defs>
  <path id="_-e-upload" data-name="-e-upload" class="cls-1" d="M1015.79,1752.5a1.213,1.213,0,0,0-1.2,1.24v11.25a5.486,5.486,0,0,1-5.4,5.54h-26.4a5.482,5.482,0,0,1-5.393-5.54v-11.44a1.2,1.2,0,1,0-2.406,0v11.44a7.916,7.916,0,0,0,7.8,8.01h26.4a7.914,7.914,0,0,0,7.8-8.01v-11.25A1.219,1.219,0,0,0,1015.79,1752.5Zm-26.6-9.53,5.6-5.75v25.09a1.2,1.2,0,1,0,2.407,0v-25.09l5.594,5.75a1.219,1.219,0,0,0,.85.37,1.145,1.145,0,0,0,.85-0.37,1.262,1.262,0,0,0,0-1.75l-7.65-7.85a1.2,1.2,0,0,0-.847-0.37,1.147,1.147,0,0,0-.847.37l-7.648,7.85a1.258,1.258,0,0,0,0,1.75A1.176,1.176,0,0,0,989.192,1742.97Z" transform="translate(-975 -1733)"/>
</svg>
